<?xml version="1.0" standalone="no"?>
<!DOCTYPE svg PUBLIC "-//W3C//DTD SVG 20010904//EN"
 "http://www.w3.org/TR/2001/REC-SVG-20010904/DTD/svg10.dtd">
<svg version="1.0" xmlns="http://www.w3.org/2000/svg"
 width="255.000000pt" height="255.000000pt" viewBox="0 0 255.000000 255.000000"
 preserveAspectRatio="xMidYMid meet">
<metadata>
Created by potrace 1.14, written by Peter Selinger 2001-2017
</metadata>
<g transform="translate(0.000000,255.000000) scale(0.100000,-0.100000)"
fill="#000000" stroke="none">
<path d="M717 2251 c-307 -154 -561 -282 -564 -284 -2 -3 -4 -100 -4 -216 l1
-211 -70 -35 c-45 -22 -70 -42 -71 -53 0 -9 -1 -53 -2 -97 l0 -80 71 -38 c59
-31 72 -42 72 -62 0 -21 -12 -31 -70 -60 -39 -19 -70 -42 -71 -50 0 -8 -1
-140 -1 -292 l-1 -276 77 -39 76 -38 0 75 c0 41 3 75 8 74 4 0 85 -39 180 -87
774 -390 924 -462 949 -457 15 2 29 8 32 12 8 11 237 123 250 123 6 0 11 4 11
8 0 5 18 15 40 22 22 7 40 17 40 22 0 5 4 7 9 4 5 -4 11 -3 13 1 1 5 50 31
108 58 58 28 107 52 110 55 8 9 140 70 150 70 6 0 10 5 10 10 0 6 9 10 20 10
11 0 20 5 20 11 0 5 5 7 10 4 6 -3 10 -1 10 4 0 6 9 11 20 11 11 0 20 4 20 8
0 5 18 15 40 22 22 7 40 17 40 22 0 5 5 6 10 3 6 -3 10 -1 10 5 0 6 5 8 10 5
6 -3 10 -1 10 5 0 6 4 9 9 6 5 -4 11 -3 13 1 1 5 26 18 53 31 l50 23 -3 114
-3 114 70 36 71 35 0 295 0 295 -71 35 -70 36 1 147 c1 81 1 177 1 213 l-1 67
-563 281 c-309 154 -564 281 -567 281 -3 0 -256 -126 -563 -279z"/>
</g>
</svg>
